<svg id="Capa_1" enable-background="new 0 0 512 512" height="512" viewBox="0 0 512 512" width="512" xmlns="http://www.w3.org/2000/svg"><g><g><path d="m496.664 239.043c10.449 9.424 10.449 24.49 0 33.915-37.59 33.904-131.171 106.833-240.664 106.833s-203.073-72.929-240.663-106.834c-10.449-9.424-10.449-24.49 0-33.915 37.59-33.904 131.17-106.833 240.663-106.833s203.074 72.929 240.664 106.834z" fill="#f5f5f5"/></g><g><path d="m496.664 239.042c-37.59-33.904-131.171-106.833-240.664-106.833-5.035 0-10.036.157-15 .454 102.981 6.174 189.802 74.033 225.663 106.379 10.449 9.425 10.449 24.49 0 33.915-35.861 32.346-122.682 100.207-225.663 106.379 4.964.298 9.965.454 15 .454 109.493 0 203.073-72.928 240.663-106.833 10.45-9.424 10.45-24.49.001-33.915z" fill="#ebe5ed"/></g><g><circle cx="256" cy="256" fill="#91dafa" r="123.791"/></g><g><path d="m256 256 110.719-55.367c4.284 8.566 7.559 17.601 9.759 26.922 2.201 9.321 3.312 18.867 3.312 28.444h-123.79z" fill="#75cff9"/></g><g><path d="m256 256 117.44 39.14c-3.028 9.086-7.101 17.79-12.136 25.938-5.035 8.147-10.999 15.683-17.771 22.455z" fill="#75cff9"/></g><g><path d="m256 256 55.366 110.719c-8.566 4.284-17.601 7.559-26.922 9.759-9.321 2.201-18.867 3.312-28.444 3.312z" fill="#75cff9"/></g><g><path d="m256 256-39.14 117.44c-9.086-3.028-17.79-7.101-25.938-12.136-8.147-5.035-15.683-10.999-22.455-17.771z" fill="#75cff9"/></g><g><path d="m256 256-110.719 55.366c-4.284-8.566-7.559-17.601-9.759-26.922-2.201-9.321-3.312-18.867-3.312-28.444z" fill="#75cff9"/></g><g><path d="m256 256-117.44-39.14c3.028-9.086 7.101-17.79 12.136-25.938 5.035-8.147 10.999-15.683 17.771-22.455z" fill="#75cff9"/></g><g><path d="m256 256-55.367-110.719c8.566-4.284 17.601-7.559 26.922-9.759 9.321-2.201 18.867-3.312 28.444-3.312v123.79z" fill="#75cff9"/></g><g><path d="m256 256 39.14-117.44c9.086 3.028 17.79 7.101 25.938 12.136 8.147 5.035 15.683 10.999 22.455 17.771z" fill="#75cff9"/></g><g><circle cx="256" cy="256" fill="#766d78" r="59.52"/></g><g><path d="m256 196.48c-5.182 0-10.208.665-15 1.909 25.61 6.649 44.52 29.921 44.52 57.611 0 27.689-18.91 50.961-44.52 57.61 4.792 1.244 9.818 1.909 15 1.909 32.872 0 59.52-26.647 59.52-59.52s-26.648-59.519-59.52-59.519z" fill="#655e67"/></g><g><circle cx="277.192" cy="200.368" fill="#f5f5f5" r="23.381"/></g><g><path d="m501.688 233.473c-20.246-18.261-53.135-44.737-94.839-67.167-51.323-27.601-102.076-41.597-150.849-41.597-59.261 0-120.712 20.333-182.646 60.433-3.477 2.252-4.471 6.896-2.22 10.372 2.251 3.478 6.895 4.469 10.372 2.22 31.555-20.431 62.897-35.517 93.781-45.177-30.756 24.047-50.577 61.465-50.577 103.443 0 41.827 19.677 79.128 50.244 103.185-71.5-22.558-128.811-68.542-154.593-91.797-3.457-3.117-5.36-7.162-5.36-11.389 0-4.225 1.903-8.271 5.36-11.388 11.354-10.24 23.536-20.192 36.208-29.581 3.328-2.466 4.027-7.163 1.562-10.491-2.466-3.327-7.162-4.024-10.491-1.562-13.057 9.674-25.615 19.934-37.325 30.495-6.652 6-10.315 14-10.315 22.527 0 8.528 3.663 16.528 10.314 22.527 20.246 18.261 53.134 44.737 94.839 67.167 51.322 27.602 102.074 41.597 150.848 41.597 53.009 0 108.125-16.439 163.817-48.859 3.579-2.084 4.792-6.675 2.708-10.255-2.085-3.58-6.676-4.794-10.255-2.708-25.373 14.77-50.565 26.071-75.423 33.872 30.68-24.052 50.443-61.422 50.443-103.34 0-41.829-19.679-79.13-50.248-103.187 71.501 22.558 128.814 68.542 154.598 91.798 3.456 3.118 5.359 7.163 5.359 11.389s-1.903 8.27-5.359 11.388c-11.468 10.343-30.073 26.005-53.59 41.882-3.434 2.317-4.338 6.979-2.02 10.412 1.449 2.146 3.814 3.305 6.223 3.305 1.443 0 2.903-.416 4.189-1.285 24.237-16.363 43.42-32.51 55.244-43.175 6.651-5.999 10.313-13.999 10.313-22.527s-3.662-16.528-10.312-22.527zm-129.397 22.527c0 64.122-52.168 116.29-116.291 116.29-64.122 0-116.29-52.168-116.29-116.29 0-64.123 52.168-116.291 116.29-116.291 64.123 0 116.291 52.168 116.291 116.291z"/><path d="m256 323.02c36.955 0 67.021-30.065 67.021-67.02 0-16.615-6.014-32.301-16.997-44.592 1.319-3.431 2.049-7.151 2.049-11.041 0-17.027-13.853-30.881-30.881-30.881-13.174 0-24.442 8.296-28.87 19.936-33.512 3.836-59.342 32.512-59.342 66.578 0 36.956 30.065 67.02 67.02 67.02zm21.191-138.533c8.757 0 15.881 7.124 15.881 15.881s-7.124 15.881-15.881 15.881-15.881-7.124-15.881-15.881c.001-8.757 7.125-15.881 15.881-15.881zm-30.553 20.347c2.171 14.918 15.044 26.414 30.554 26.414 7.542 0 14.458-2.722 19.827-7.23 7.126 9.102 11.002 20.24 11.002 31.981 0 28.684-23.336 52.02-52.021 52.02-28.684 0-52.02-23.336-52.02-52.02 0-25.279 18.324-46.726 42.658-51.165z"/></g></g></svg>